<svg width="2341" height="205" viewBox="0 0 2341 205" fill="none" xmlns="http://www.w3.org/2000/svg">
<path d="M2238.47 0H1653.7C1597.08 0 1551.18 45.8908 1551.18 102.5C1551.18 159.109 1597.08 205 1653.7 205H2238.47C2295.09 205 2340.99 159.109 2340.99 102.5C2340.99 45.8908 2295.09 0 2238.47 0Z" fill="#E470DC"/>
<path d="M1681.14 157.661C1668.13 157.661 1657.49 155.48 1648.99 150.964C1640.31 146.219 1633.99 139.905 1629.86 131.447C1625.73 122.952 1623.54 113.309 1623.54 102.249C1623.54 91.1899 1625.92 79.1738 1630.85 69.913C1635.6 60.6522 1642.49 53.3431 1651.36 48.2152C1660.43 43.0874 1671.26 40.5234 1683.89 40.5234C1696.52 40.5234 1704.98 42.7047 1711.71 47.2203C1718.41 51.5445 1721.97 57.2847 1721.97 64.5555C1721.97 71.8264 1720.59 72.8214 1717.64 75.8062C1714.7 78.5615 1710.95 79.7478 1705.63 79.7478C1700.31 79.7478 1699.31 79.1738 1696.75 78.1788C1693.99 77.1839 1691.24 75.9976 1688.25 75.0409C1685.31 74.0459 1681.94 73.4719 1678 73.4719C1674.06 73.4719 1669.31 74.2755 1665.56 75.8445C1661.81 77.4135 1658.87 79.9774 1656.49 83.7277C1654.31 87.4779 1653.12 92.6058 1653.12 99.3026C1653.12 108.755 1655.31 115.681 1659.82 119.623C1664.38 123.564 1670.46 125.554 1677.77 125.554C1685.08 125.554 1683.89 125.363 1687.22 124.98C1690.59 124.406 1693.73 123.985 1696.86 123.411C1700 122.837 1702.57 122.608 1704.75 122.608C1709.3 122.608 1712.82 123.794 1715.39 126.167C1718.14 128.348 1719.33 131.868 1719.33 136.614C1719.33 141.359 1716.19 148.247 1709.68 152.189C1703.37 156.13 1693.92 158.12 1681.29 158.12L1681.1 157.737L1681.14 157.661ZM1805.16 157.431C1800.42 157.431 1797.28 156.054 1795.52 153.107C1793.95 150.16 1793.15 145.607 1793.15 139.292L1795.14 140.096C1789.2 151.921 1777.8 157.852 1761.04 157.852C1744.28 157.852 1747.23 156.475 1741.91 153.911C1736.97 151.155 1733.22 147.596 1730.66 143.272C1728.28 138.718 1727.1 133.82 1727.1 128.271C1727.1 119.01 1730.46 111.701 1736.74 106.382C1743.25 101.063 1752.12 98.3076 1762.95 98.3076C1773.78 98.3076 1775.96 99.3026 1780.9 101.446C1786.03 103.436 1790.54 106.382 1794.29 110.132L1790.54 109.75C1789.97 99.6853 1787.98 92.6058 1784.23 88.4346C1780.67 84.1103 1775.54 82.1204 1768.66 82.1204C1761.77 82.1204 1761.77 82.6944 1758.21 83.6894C1754.65 84.6844 1751.7 85.8706 1748.56 87.0569C1745.43 88.0519 1742.63 88.6259 1739.69 88.6259C1736.74 88.6259 1733.75 87.631 1731.8 85.6793C1730.04 83.6894 1729.05 81.1255 1729.05 77.9875C1729.05 74.8496 1731.04 69.7217 1734.98 66.1628C1738.92 62.4126 1744.24 59.6573 1750.75 57.2847C1757.25 55.1034 1764.37 53.9171 1772.06 53.9171C1779.75 53.9171 1789.82 55.907 1796.71 60.04C1803.59 64.1729 1808.72 70.2957 1811.9 78.3702C1814.65 84.8757 1816.45 92.3762 1817.6 100.451C1818.79 108.525 1819.36 117.212 1819.36 126.473C1819.36 135.733 1818.79 140.861 1817.79 145.415C1816.8 149.969 1815.23 152.916 1813.05 154.676C1811.06 156.436 1808.3 157.24 1804.97 157.24H1805.16V157.431ZM1770.84 137.149C1773.97 137.149 1776.96 136.767 1779.91 135.963C1783.04 135.159 1785.61 133.782 1787.79 132.021C1789.97 130.261 1791.16 128.08 1791.16 125.325C1791.16 122.569 1790.16 121 1788.4 119.623C1786.64 118.054 1784.46 117.059 1781.7 116.255C1778.76 115.452 1775.77 115.069 1772.63 115.069C1767.12 115.069 1762.57 116.064 1759.62 118.207C1756.49 120.197 1755.07 122.952 1755.07 126.281C1755.07 129.611 1756.45 132.404 1759.39 134.356C1762.34 136.116 1766.09 137.111 1771.22 137.111H1770.84V137.149ZM1910.25 81.3168C1911.24 76.7629 1913.19 72.8214 1915.95 69.3007C1918.89 65.7418 1922.26 62.9866 1926.2 60.8053C1930.14 58.6241 1934.47 57.4378 1939.41 57.4378C1944.34 57.4378 1950.24 58.8154 1954.6 61.3793C1959.15 64.1346 1962.48 68.6885 1965.04 74.773C1967.61 80.8959 1968.99 89.1617 1968.99 99.4174C1968.99 109.673 1968.8 109.864 1968.41 115.184C1968.03 120.503 1967.42 125.439 1966.84 129.955C1966.27 134.509 1965.47 138.221 1964.66 141.397C1963.48 146.142 1961.52 149.663 1958.73 152.035C1955.98 154.408 1952.61 155.594 1948.48 155.594C1944.34 155.594 1941.97 154.408 1939.79 151.653C1937.8 149.089 1936.65 145.339 1936.65 140.593C1936.65 135.848 1937.03 135.848 1937.45 132.71C1938.03 129.343 1938.64 125.822 1939.21 121.881C1939.79 117.939 1940.4 113.997 1940.97 110.247C1941.55 106.306 1941.78 102.555 1941.78 99.4174C1941.78 94.6722 1940.78 90.922 1938.83 88.358C1937.07 85.7941 1934.28 84.4165 1930.95 84.4165C1927.62 84.4165 1923.64 86.5977 1921.3 91.1133C1918.74 95.4376 1917.36 101.752 1916.98 110.247C1916.6 117.135 1916.18 123.641 1915.79 129.19C1915.41 134.509 1914.8 139.254 1913.61 142.583C1912.62 145.951 1911.05 148.515 1908.87 150.084C1906.88 151.653 1904.31 152.456 1900.98 152.456C1897.66 152.456 1894.29 151.27 1892.11 148.898C1889.93 146.525 1888.74 142.775 1888.55 137.455C1888.55 133.897 1888.36 129.572 1888.36 124.636C1888.36 119.699 1888.55 114.571 1888.55 109.864C1888.55 105.158 1888.55 100.986 1888.36 97.6571C1887.97 91.9552 1886.98 87.5927 1885.22 84.8374C1883.46 82.0821 1880.89 80.8958 1877.53 80.8958C1874.16 80.8958 1870.64 82.8858 1868.27 86.5977C1866.08 90.348 1864.52 95.4758 1863.94 102.173C1863.94 105.119 1863.75 108.678 1863.75 112.811C1863.75 116.944 1863.75 121.307 1863.94 125.631C1863.94 129.764 1863.94 133.323 1863.75 136.078C1863.75 142.966 1862.37 148.094 1860 151.27C1857.82 154.408 1854.49 155.824 1850.36 155.824C1846.22 155.824 1841.86 154.255 1839.72 151.5C1837.54 148.553 1836.16 143.808 1835.78 137.494C1835.39 132.749 1834.97 128.042 1834.78 123.296C1834.59 118.551 1834.4 113.844 1834.4 109.099C1834.4 104.354 1834.4 99.2261 1834.78 93.9069C1835.16 88.3963 1835.59 83.0771 1835.97 78.1406C1836.54 72.0177 1837.96 66.6985 1839.91 62.5656C1841.86 58.4327 1845.23 56.4428 1849.97 56.4428C1854.72 56.4428 1856.86 58.0118 1858.66 61.188C1860.46 64.3642 1861.22 68.8798 1861.22 75.3853C1861.22 81.8908 1861.03 79.5182 1860.65 81.5081L1860.08 78.1406C1862.26 71.0228 1865.78 65.7036 1870.72 61.762C1875.65 57.8204 1881.16 55.6392 1887.09 55.6392C1893.03 55.6392 1900.91 58.2031 1905.23 63.1396C1909.79 68.0762 1912.12 74.773 1912.54 83.4598L1910.36 81.4699H1909.98L1910.36 81.2785L1910.25 81.3168ZM1997.23 54.9121C2000.79 54.9121 2003.73 56.6724 2006.11 60.2313C2008.29 63.7902 2010.05 69.1094 2011.04 76.6099L2007.68 79.1738C2009.67 71.482 2013.19 65.7801 2018.5 61.8385C2023.82 57.897 2030.14 55.7157 2037.45 55.7157C2044.76 55.7157 2050.27 57.476 2055.39 60.8436C2060.71 64.4025 2064.85 69.5303 2067.83 76.6099C2070.97 83.4981 2072.39 92.3762 2072.39 102.823C2072.39 119.967 2069.25 132.404 2062.93 140.479C2056.81 148.553 2048.35 152.495 2037.91 152.495C2027.46 152.495 2024.51 150.926 2020.15 147.558C2015.79 144.191 2012.84 140.249 2011.27 135.733L2013.26 134.738C2014.07 141.053 2014.83 147.175 2015.44 153.49C2016.02 159.612 2016.44 165.123 2016.44 169.677C2016.44 174.231 2015.44 179.129 2013.07 182.688C2011.08 186.247 2007.56 188.007 2002.82 188.007C1998.07 188.007 1994.93 186.438 1992.56 183.262C1990.38 180.124 1988.81 175.761 1987.81 170.442C1987.24 165.697 1986.63 159.804 1985.82 152.686C1985.25 145.377 1984.64 137.494 1984.26 129.037C1983.87 120.541 1983.68 112.275 1983.68 104.392C1983.68 96.5091 1984.06 88.6259 1984.48 81.5081C1985.06 74.199 1985.86 68.4971 1986.67 63.9433C1987.47 60.5757 1988.66 58.4327 1990.42 56.6341C1992.18 55.0652 1994.55 54.2615 1997.11 54.2615L1997.3 54.8356L1997.23 54.9121ZM2028.19 78.1788C2023.06 78.1788 2018.93 80.7428 2015.75 85.8707C2012.61 90.9985 2011.2 97.504 2011.2 105.579C2011.2 113.653 2012.76 119.776 2015.75 123.717C2018.89 127.659 2022.87 129.84 2027.77 129.84C2032.66 129.84 2037.64 127.659 2040.2 123.143C2042.77 118.628 2044.14 112.696 2044.14 105.387C2044.14 98.078 2042.58 89.1999 2039.4 84.8757C2036.26 80.5514 2032.51 78.3702 2028.15 78.3702V78.1788H2028.19ZM2160.67 154.867C2157.11 154.867 2154.55 153.872 2152.59 151.921C2150.83 149.931 2149.46 147.175 2148.84 144.038C2148.27 140.67 2147.85 137.341 2147.85 133.782L2148.65 133.208C2147.47 137.953 2145.09 141.895 2141.96 145.224C2138.82 148.553 2135.26 151.155 2130.9 153.107C2126.76 154.867 2122.63 155.671 2118.46 155.671C2114.29 155.671 2107.4 154.485 2102.89 151.729C2098.33 148.974 2095 144.841 2092.25 138.91C2089.87 133.59 2087.92 126.473 2086.54 117.595C2085.36 108.908 2084.55 100.03 2084.55 90.7689C2084.55 81.5081 2084.75 81.8908 2085.13 77.9492C2085.51 74.0077 2086.12 70.6401 2087.12 67.8848C2088.11 64.5173 2089.87 61.9533 2092.25 60.5757C2094.43 59.0067 2097.37 58.2031 2100.74 58.2031C2104.11 58.2031 2107.63 59.5807 2110 62.5274C2112.18 65.2826 2113.56 69.0329 2113.94 74.1607C2114.33 77.7196 2114.75 81.8525 2114.75 86.5977C2114.94 91.3429 2115.13 96.0499 2115.32 100.986C2115.51 105.732 2115.7 109.864 2115.9 113.002C2116.47 118.513 2117.89 122.646 2120.22 125.21C2122.4 127.774 2125.35 129.151 2128.72 129.151C2132.08 129.151 2136.98 127.161 2139.55 123.45C2142.11 119.508 2143.3 114.189 2143.3 107.262C2143.3 100.336 2143.1 99.7618 2142.72 95.4376C2142.34 90.8837 2141.92 86.5595 2141.54 82.4266C2141.15 78.1023 2140.96 74.7347 2140.96 71.9795C2140.96 66.048 2141.96 61.7237 2144.33 59.1598C2146.51 56.5959 2149.46 55.2182 2153.4 55.2182C2157.34 55.2182 2159.52 56.0219 2161.66 57.5908C2164.04 59.1598 2165.8 61.3411 2166.98 64.0963C2168.55 67.4639 2169.93 71.7881 2170.92 77.2987C2171.92 82.8092 2172.91 89.1234 2173.49 96.2412C2174.06 103.129 2174.48 110.63 2174.48 118.322C2174.48 130.529 2173.49 139.637 2171.35 145.721C2169.36 151.653 2165.84 154.599 2160.71 154.599H2160.52L2160.71 154.791L2160.67 154.867ZM2233.03 54.1085C2243.48 54.1085 2250.98 55.8688 2255.5 59.2363C2260.24 62.6039 2262.38 66.7368 2262.38 72.056C2262.38 77.3752 2261.39 77.9875 2259.02 79.9392C2257.03 81.9291 2253.89 82.8858 2250.14 82.8858C2246.39 82.8858 2243.25 82.3118 2239.5 81.3168C2235.75 80.3218 2231.43 79.7478 2226.49 79.7478C2221.55 79.7478 2218.99 80.5514 2216.85 82.3118C2214.66 83.8807 2213.48 86.062 2213.48 88.4346C2213.48 90.8072 2214.47 92.9884 2216.43 94.5574C2218.42 95.935 2222.55 96.93 2228.63 97.6954C2236.52 98.499 2243.21 99.8766 2248.53 102.02C2253.85 103.78 2257.79 106.765 2260.36 110.706C2263.11 114.457 2264.3 119.776 2264.3 126.664C2264.3 137.111 2260.55 144.612 2253.05 149.548C2245.55 154.485 2235.1 156.857 2221.71 156.857C2208.31 156.857 2206.13 156.054 2201 154.676C2195.88 153.107 2191.93 150.926 2189.56 148.17C2187.38 145.224 2186.19 142.048 2186.19 138.527C2186.19 135.006 2187.38 132.404 2189.56 130.644C2191.74 128.654 2194.5 127.697 2197.64 127.697C2200.77 127.697 2202.76 128.08 2205.52 128.692C2208.47 129.266 2211.45 129.878 2214.4 130.682C2217.53 131.256 2220.71 131.677 2224.04 131.677C2232.31 131.677 2236.48 129.113 2236.48 124.177C2236.48 119.24 2236.09 121.039 2235.29 119.852C2234.49 118.666 2232.92 117.671 2230.35 116.906C2228.17 116.102 2224.65 115.528 2220.1 114.916C2213.4 114.342 2207.28 113.156 2202.34 111.548C2197.41 109.788 2193.46 107.224 2190.71 103.665C2187.95 99.9149 2186.77 94.9784 2186.77 88.6642C2186.77 78.4084 2190.71 70.334 2198.59 64.0198C2206.48 57.7056 2217.73 54.5677 2232.5 54.5677L2232.88 54.185L2233.03 54.1085Z" fill="white"/>
<path d="M91.7276 63.6839H58.0521V164.519H33.4842V63.6839H0V40.1875H91.498V63.6839H91.7276Z" fill="#191919"/>
<path d="M182.191 140.992V164.488H105.311V40.1562H181.349V63.6526H129.879V90.1339H176.91V113.209H129.879V141.183H182.191V140.953V140.992Z" fill="#191919"/>
<path d="M192.983 102.447C192.983 66.0166 219.885 37.8516 257.579 37.8516C295.272 37.8516 300.362 49.2936 310.962 67.0881L289.762 79.372C283.83 68.3509 271.738 61.5775 257.349 61.5775C232.973 61.5775 217.091 78.5301 217.091 102.447C217.091 126.365 232.973 143.126 257.349 143.126C281.726 143.126 283.83 136.353 289.762 125.561L310.962 137.845C300.592 155.64 280.463 167.082 257.579 167.082C219.885 167.082 192.983 138.687 192.983 102.486V102.447Z" fill="#191919"/>
<path d="M421.134 40.1562V164.488H396.757V113.018H350.568V164.488H326V40.1562H350.568V89.5216H396.757V40.1562H421.134Z" fill="#191919"/>
<path d="M513.056 63.6909V93.1187H561.35V116.615H513.056V164.488H488.489V40.1562H562.843V63.6526H513.056V63.6909Z" fill="#191919"/>
<path d="M575.121 102.447C575.121 66.0166 603.707 37.8516 639.526 37.8516C675.345 37.8516 704.122 66.0166 704.122 102.447C704.122 138.878 675.306 167.043 639.526 167.043C603.746 167.043 575.121 138.649 575.121 102.447ZM679.784 102.447C679.784 78.4919 662.219 61.5775 639.756 61.5775C617.292 61.5775 599.728 78.5301 599.728 102.447C599.728 126.365 617.292 143.126 639.756 143.126C662.219 143.126 679.784 126.173 679.784 102.447Z" fill="#191919"/>
<path d="M764.744 121.284H746.108V164.488H721.54V40.1562H771.326C794.211 40.1562 812.617 58.6013 812.617 81.4471C812.617 104.293 802.859 111.105 788.662 117.687L816.214 164.718H789.733L764.744 121.513V121.284ZM746.07 99.8921H771.288C780.626 99.8921 788.241 91.6263 788.241 81.4471C788.241 71.2679 780.626 63.0021 771.288 63.0021H746.07V99.8538V99.8921Z" fill="#191919"/>
<path d="M1038.43 164.526H1014.05V83.8197L979.116 141.642H976.361L941.423 84.011V164.526H916.855V40.1562H942.073L977.662 98.8206L1013.25 40.1562H1038.47V164.488L1038.43 164.526Z" fill="#191919"/>
<path d="M1150.25 81.9063C1150.25 105.211 1131.81 123.656 1107.66 123.656H1085.85V164.526H1061.28V40.1562H1107.66C1131.61 40.1562 1150.25 58.6013 1150.25 81.9063ZM1125.91 81.9063C1125.91 71.1148 1118.3 63.0403 1107.89 63.0403H1086.08V100.734H1107.89C1118.26 100.734 1125.91 92.4682 1125.91 81.868V81.9063Z" fill="#191919"/>
<path d="M1226.33 142.254H1176.77L1169.35 164.488H1142.87L1186.3 40.1562H1216.8L1260.42 164.488H1233.75L1226.33 142.254ZM1218.67 119.409L1201.53 68.5509L1184.39 119.409H1218.71H1218.67Z" fill="#191919"/>
<path d="M1262.11 102.447C1262.11 66.0166 1289.01 37.8516 1326.7 37.8516C1364.4 37.8516 1369.49 49.2936 1380.09 67.0881L1358.89 79.372C1352.96 68.3509 1340.86 61.5775 1326.47 61.5775C1302.1 61.5775 1286.22 78.5301 1286.22 102.447C1286.22 126.365 1302.1 143.126 1326.47 143.126C1350.85 143.126 1352.96 136.353 1358.89 125.561L1380.09 137.845C1369.72 155.64 1349.59 167.082 1326.7 167.082C1289.01 167.082 1262.11 138.687 1262.11 102.486V102.447Z" fill="#191919"/>
<path d="M1477.13 63.6839H1443.45V164.519H1418.89V63.6839H1385.4V40.1875H1476.9V63.6839H1477.13Z" fill="#191919"/>
<path d="M881.229 166.628C890.108 166.628 897.34 159.433 897.34 150.517C897.34 141.601 890.146 134.406 881.229 134.406C872.313 134.406 865.119 141.601 865.119 150.517C865.119 159.433 872.313 166.628 881.229 166.628Z" fill="#191919"/>
<path d="M881.225 118.107C884.822 118.107 888.228 118.757 891.404 119.791L899.861 39.926C893.7 38.8545 887.577 38.2422 880.995 38.2422C874.413 38.2422 868.29 38.8927 862.129 39.926L870.586 119.791C873.763 118.719 877.36 118.107 880.766 118.107H881.187H881.225Z" fill="#191919"/>
</svg>
